# xmcd
#
# Track frame offsets:
# 150
# 15353
# 33666
# 54146
# 82953
# 99031
# 128994
# 144008
# 163717
# 188248
# 204649
# 236736
# 263260
#
# Disc length: 4561 seconds
#
#
# Revision: 0
# Processed by: cddbd v1.5.2PL0 Copyright (c) Steve Scherf et al.
# Submitted via: FreeRIP 2.96 
#
DISCID=9611cf0d
DTITLE=The Joe Moss Band - Maricela's Smile
DYEAR=2008
DGENRE=Blues
TTITLE0=Suburban Glory
TTITLE1=Green Eyes
TTITLE2=You Made Me So Happy
TTITLE3=Maricela's Smile
TTITLE4=My Life
TTITLE5=I Am Feeling You
TTITLE6=Fire And Water
TTITLE7=Big Leg Woman
TTITLE8=Can You Feel My Heart
TTITLE9=Can't Always Be Right
TTITLE10=She Put A Stick In My Spokes
TTITLE11=Dr. Strangelove
TTITLE12=Ain't Got No Money (Live)
EXTD=www.joemossband.com
EXTT0=
EXTT1=
EXTT2=
EXTT3=
EXTT4=
EXTT5=
EXTT6=
EXTT7=
EXTT8=
EXTT9=
EXTT10=
EXTT11=
EXTT12=
PLAYORDER=
